<svg width="166" height="168" viewBox="0 0 166 168" fill="none" xmlns="http://www.w3.org/2000/svg">
<path d="M140.293 48.2192L137.417 44.7083L137.104 48.2192C138.282 49.672 139.398 51.1736 140.45 52.7203L140.293 48.2192Z" fill="#F0916E"/>
<path fill-rule="evenodd" clip-rule="evenodd" d="M133 137.897C120.17 150.109 102.557 157.645 83.1213 157.645C67.1718 157.645 52.4496 152.569 40.5909 144L42 141.957C53.4541 150.268 67.6922 155.193 83.1213 155.193C101.752 155.193 118.647 148.012 131 136.358L133 137.897ZM12.0547 89C12.0547 99.7573 14.6164 109.937 19.1828 119L21.2518 117.5C16.9825 108.869 14.5922 99.2039 14.5922 89C14.5922 60.099 33.7677 35.524 60.5 26.4978V23.9063C32.3417 33.0324 12.0547 58.7278 12.0547 89ZM98 21.8623C113.674 25.0875 127.436 33.3045 137.417 44.7083L137.104 48.2192C132.77 42.874 127.603 38.1888 121.793 34.3456C114.706 29.658 106.661 26.2231 98 24.371V21.8623ZM137.417 44.7083C138.414 45.8474 139.373 47.0183 140.293 48.2192L137.417 44.7083ZM140.293 48.2192L140.45 52.7203C147.531 63.1393 151.65 75.605 151.65 89C151.65 97.0874 150.149 104.836 147.4 112L149.723 113C152.61 105.529 154.188 97.4427 154.188 89C154.188 73.7284 149.025 59.6216 140.293 48.2192Z" fill="#F0916E"/>
<path d="M62.6895 96.3295C75.1122 91.7846 101.804 89.4722 105.108 109.358C107.813 125.633 82.384 126.932 85.4139 111.176" stroke="#524B49" stroke-width="2" stroke-linecap="round"/>
<path d="M112.242 89.0631C120.905 90.3083 140.323 89.1311 148.696 74.4609" stroke="#524B49" stroke-width="2" stroke-linecap="round"/>
<path d="M68.1442 70.4168C39.0167 65.6104 16.5659 81.3735 3.24577 90.7655C2.10512 91.5698 1.98787 91.4153 3.16582 90.6668C13.4811 84.1117 31.213 73.1183 28.7551 64.6598C25.5069 53.4811 9.78369 59.0386 12.9995 69.2046" stroke="#524B49" stroke-width="2" stroke-linecap="round"/>
<path d="M16 100C20.0052 92.2993 39.2108 77.6584 83.9912 80.6996C128.772 83.7409 136.456 60.7171 134.795 48.1425C133.188 40.3497 129.49 35.934 121.797 35.0808C110.739 33.8545 99.2306 46.7777 113.298 61.1068" stroke="#524B49" stroke-width="2" stroke-linecap="round"/>
<path d="M91.6266 36.5712C99.5189 27.1858 100.039 10.1877 97.4122 2.16854C97.0525 1.07037 95.5018 1.36668 95.0287 2.42098C94.0375 4.63002 92.029 7.20582 88.2937 8.99877C80.7188 12.6347 67.8842 12.8419 62.2363 20.8155C57.2605 27.8401 61.7094 36.938 64.1116 38.5501C64.2674 38.6546 64.4138 38.7666 64.5329 38.9115C68.6459 43.9158 80.5777 49.7104 91.6266 36.5712Z" stroke="#524B49" stroke-width="2"/>
<path d="M48.6011 41.9151C55.8729 42.5211 64.4779 40.0365 68.5986 36.1582" stroke="#524B49" stroke-width="2" stroke-linecap="round"/>
<path d="M155.786 119.502C162.272 129.099 161.08 145.119 157.819 152.393C157.373 153.389 155.945 152.957 155.605 151.92C154.892 149.747 153.26 147.128 149.929 145.075C143.172 140.91 131.136 139.446 126.618 131.397C122.638 124.307 127.717 116.2 130.133 114.923C130.29 114.84 130.439 114.749 130.565 114.625C134.923 110.33 146.705 106.067 155.786 119.502Z" stroke="#524B49" stroke-width="2"/>
<path d="M116.378 109.784C121.982 110.309 129.023 111.818 135.058 118.457" stroke="#524B49" stroke-width="2" stroke-linecap="round"/>
<path d="M27.4042 114.359C39.1213 110.211 60.6307 118.609 68.3774 124.655C69.2884 125.366 68.4784 127.008 67.3281 127.118C62.4468 127.583 54.1429 129.505 50.5529 132.947C44.488 138.762 41.2817 144.924 31.8323 147.411C23.5076 149.602 16.5521 142.241 15.8865 139.426C15.8434 139.243 15.79 139.067 15.6962 138.904C12.4554 133.296 11.2213 120.089 27.4042 114.359Z" stroke="#524B49" stroke-width="2"/>
<path d="M8.76574 148.399C11.0005 144.168 16.7396 135.081 21.8182 132.585" stroke="#524B49" stroke-width="2" stroke-linecap="round"/>
</svg>
